<svg xmlns="http://www.w3.org/2000/svg" width="220" height="24" viewBox="0 0 220.01 23.66"><path d="M7.3,22a2,2,0,0,0,1.83-.8A4.66,4.66,0,0,0,9.54,19V18l0-3.76L3.83,5.12A11.56,11.56,0,0,1,2.05,1.39L0,1.45V0H8.52V1.09c-1.72,0-2.58.48-2.58,1.45a4.32,4.32,0,0,0,.83,2.15l1,1.62q2.11,3.43,3.66,5.58h.07c.77-1.52,2-3.76,3.53-6.74l.69-1.29a14,14,0,0,1,1.59-2.51l-2.61.1V0h6.73V1.09a4.08,4.08,0,0,0-2.59,1.06,12.87,12.87,0,0,0-2.26,3.2l-4.16,7.87c0,1.07,0,2.22,0,3.43s0,2.06,0,2.55a25.3,25.3,0,0,1-.1,2.61l2.74-.13v1.45H7.3ZM30,23.66A1.78,1.78,0,0,1,28.61,23a2.15,2.15,0,0,1-.56-1.5A2.21,2.21,0,0,1,28.63,20,1.79,1.79,0,0,1,30,19.39a1.73,1.73,0,0,1,1.37.63,2.22,2.22,0,0,1,.54,1.52,2.07,2.07,0,0,1-.57,1.5A1.85,1.85,0,0,1,30,23.66ZM44.78,22a2,2,0,0,0,1.83-.8A4.67,4.67,0,0,0,47,19V18l0-16.75-3.4,0a3.18,3.18,0,0,0-2.92,1.37A8.36,8.36,0,0,0,39.86,7H38.64l.21-7H58.08l.2,7H57a12.39,12.39,0,0,0-.42-3.32A3.27,3.27,0,0,0,55.33,1.8a4.71,4.71,0,0,0-2.59-.61H49.93l0,18a25.3,25.3,0,0,1-.1,2.61l2.74-.13v1.45H44.78Z" fill="#d0d0d0"/><path d="M75.08,22.18a1,1,0,0,0,.75-.26,1.13,1.13,0,0,0,.26-.65c0-.26,0-.69.06-1.29l0-8.69a7.58,7.58,0,0,1,.07-1.17L75,10.19V9.43a6.45,6.45,0,0,0,1.45-.11A1.56,1.56,0,0,0,77.08,9h.54c0,.58.07.91.07,1A4.33,4.33,0,0,1,79,9.14a3.9,3.9,0,0,1,1.5-.3,3.67,3.67,0,0,1,2,.54A4.21,4.21,0,0,1,83.9,11a4.94,4.94,0,0,1,.54,2.35A5.46,5.46,0,0,1,83.81,16a4.79,4.79,0,0,1-1.68,1.81,4.25,4.25,0,0,1-2.28.64,3.85,3.85,0,0,1-2.16-.59v3A7.08,7.08,0,0,1,77.62,22L78.75,22v.74H75.08Zm4.74-4.49a2.21,2.21,0,0,0,1.47-.52,3.36,3.36,0,0,0,1-1.46,6.12,6.12,0,0,0,.34-2.12,5.16,5.16,0,0,0-.69-2.74,2.27,2.27,0,0,0-2.06-1.13,2.46,2.46,0,0,0-1.16.29,3.6,3.6,0,0,0-1,.72c0,.08,0,.45,0,1.1l0,5.16A3.29,3.29,0,0,0,79.82,17.69Zm9.59-.1a1,1,0,0,0,.76-.26,1.21,1.21,0,0,0,.28-.68c0-.27,0-.69,0-1.26V6.88a11.46,11.46,0,0,1,.06-1.17l-1.28.07V5a6.68,6.68,0,0,0,1.54-.13,1.65,1.65,0,0,0,.71-.36H92V10a5.73,5.73,0,0,1,1.42-.86A4,4,0,0,1,95,8.84a2.57,2.57,0,0,1,2.25,1A5.38,5.38,0,0,1,98,12.87l0,3.35a8.24,8.24,0,0,1-.07,1.22L99,17.39v.74H95.37v-.54a1,1,0,0,0,.75-.26,1.24,1.24,0,0,0,.27-.67c0-.27,0-.69,0-1.27V12.87A4.4,4.4,0,0,0,96,10.56a1.69,1.69,0,0,0-1.53-.77,3.21,3.21,0,0,0-1.33.32,3,3,0,0,0-1,.8v5.31A6.21,6.21,0,0,1,92,17.44l1.13-.05v.74H89.41Zm19,.82a4.55,4.55,0,0,1-2.28-.58,4.42,4.42,0,0,1-1.64-1.63,4.74,4.74,0,0,1-.6-2.36,5.41,5.41,0,0,1,.6-2.55,4.63,4.63,0,0,1,1.63-1.8,4.21,4.21,0,0,1,2.3-.65,4.51,4.51,0,0,1,3.93,2.24,4.62,4.62,0,0,1,.6,2.32,5.35,5.35,0,0,1-.6,2.52,4.7,4.7,0,0,1-1.65,1.83A4.13,4.13,0,0,1,108.44,18.41Zm.14-.72a2.07,2.07,0,0,0,1.94-1.08,5.29,5.29,0,0,0,.62-2.68,6.6,6.6,0,0,0-.68-3.11,2.16,2.16,0,0,0-2-1.3,2.21,2.21,0,0,0-2,1.1,5,5,0,0,0-.67,2.7,7.13,7.13,0,0,0,.31,2.15,3.79,3.79,0,0,0,1,1.61A2.09,2.09,0,0,0,108.58,17.69Zm12.91.72c-1.65,0-2.46-1.1-2.45-3.31l0-5.22-1.39,0V9.13a1.85,1.85,0,0,0,1.46-.79,5.11,5.11,0,0,0,.9-1.73h.61V9.13h3v.7l-3,0c0,1.84,0,3.11,0,3.82s0,1.1,0,1.19a4.55,4.55,0,0,0,.31,1.9,1.08,1.08,0,0,0,1.06.62,1.82,1.82,0,0,0,.93-.29,2.62,2.62,0,0,0,.8-.79l.48.4a3.78,3.78,0,0,1-1.38,1.37A2.94,2.94,0,0,1,121.49,18.41Zm11.64,0a4.58,4.58,0,0,1-2.28-.58,4.32,4.32,0,0,1-1.63-1.63,4.54,4.54,0,0,1-.6-2.36,5.4,5.4,0,0,1,.59-2.55,4.63,4.63,0,0,1,1.63-1.8,4.24,4.24,0,0,1,2.3-.65,4.51,4.51,0,0,1,2.29.6,4.45,4.45,0,0,1,1.64,1.64,4.52,4.52,0,0,1,.6,2.32,5.23,5.23,0,0,1-.6,2.52,4.6,4.6,0,0,1-1.64,1.83A4.14,4.14,0,0,1,133.13,18.41Zm.15-.72a2,2,0,0,0,1.93-1.08,5.19,5.19,0,0,0,.62-2.68,6.71,6.71,0,0,0-.67-3.11,2.3,2.3,0,0,0-4-.19,5.06,5.06,0,0,0-.68,2.69,7.09,7.09,0,0,0,.32,2.15,3.71,3.71,0,0,0,.95,1.61A2.12,2.12,0,0,0,133.28,17.69Zm21.54.72a5,5,0,0,1-1.54-.22,4.76,4.76,0,0,1-1.21-.56l.07.63h-.75l-.11-3.1h.56a2.55,2.55,0,0,0,.4,1.31,2.65,2.65,0,0,0,1,.91,2.61,2.61,0,0,0,1.29.33,2.54,2.54,0,0,0,1.37-.37,1.16,1.16,0,0,0,.6-1.05,1.27,1.27,0,0,0-.3-.85,2.54,2.54,0,0,0-.74-.56,12,12,0,0,0-1.23-.53,13,13,0,0,1-1.53-.68,3.11,3.11,0,0,1-1-.85,2.17,2.17,0,0,1-.41-1.37,2.61,2.61,0,0,1,.29-1.19,2.42,2.42,0,0,1,1-1,3.5,3.5,0,0,1,1.82-.41A3.74,3.74,0,0,1,155.5,9a3.21,3.21,0,0,1,1.09.59l0-.68h.76v3.15h-.58a3.17,3.17,0,0,0-.63-1.81,2.2,2.2,0,0,0-2.94-.37,1.26,1.26,0,0,0-.48,1,1.31,1.31,0,0,0,.32.88,2.89,2.89,0,0,0,.78.61,11.79,11.79,0,0,0,1.26.56,11.51,11.51,0,0,1,1.51.7,3.11,3.11,0,0,1,1,.85,2.14,2.14,0,0,1,.4,1.29,2.49,2.49,0,0,1-.44,1.47,2.87,2.87,0,0,1-1.15.89A3.82,3.82,0,0,1,154.82,18.41Zm11.63,0c-1.64,0-2.46-1.1-2.44-3.31l0-5.22-1.39,0V9.13a1.87,1.87,0,0,0,1.47-.79A4.91,4.91,0,0,0,165,6.61h.61V9.13h3v.7l-3,0c0,1.84,0,3.11,0,3.82s0,1.1,0,1.19a4.57,4.57,0,0,0,.3,1.9,1.1,1.1,0,0,0,1.06.62,1.79,1.79,0,0,0,.93-.29,2.62,2.62,0,0,0,.8-.79l.49.4a3.88,3.88,0,0,1-1.39,1.37A2.91,2.91,0,0,1,166.45,18.41Zm11,0a2.68,2.68,0,0,1-2.24-.88,4.91,4.91,0,0,1-.71-3v-3.2a7.66,7.66,0,0,1,.07-1.17l-1.24.05V9.44h.56a3.43,3.43,0,0,0,1.06-.13,1.7,1.7,0,0,0,.61-.36h.53v5.49a4.53,4.53,0,0,0,.44,2.32,1.57,1.57,0,0,0,1.46.74,2.43,2.43,0,0,0,1.31-.4,3.35,3.35,0,0,0,1-1V11.48a10.35,10.35,0,0,1,.09-1.36l-1.3.05V9.43h.56a3.42,3.42,0,0,0,1.06-.12,1.83,1.83,0,0,0,.62-.36h.52l0,6.8a15.92,15.92,0,0,1-.07,1.69l1.3-.07v.76h-2.58q-.09-.57-.12-1.08A5.22,5.22,0,0,1,179,18a3.48,3.48,0,0,1-1.55.38Zm14.4,0a3.64,3.64,0,0,1-2-.55,3.8,3.8,0,0,1-1.38-1.59,5.35,5.35,0,0,1-.5-2.39,5.53,5.53,0,0,1,.59-2.59,4.42,4.42,0,0,1,4-2.45,4.48,4.48,0,0,1,1.15.15,4.81,4.81,0,0,1,1,.35V6.88a11.45,11.45,0,0,1,0-1.17l-1.28.07V5A6.6,6.6,0,0,0,195,4.9a1.65,1.65,0,0,0,.71-.36h.52V16.22c0,.41,0,.82-.07,1.22l1.27-.07v.76h-2.57c-.06-.31-.1-.63-.13-.94a3.52,3.52,0,0,1-1.26.9,3.91,3.91,0,0,1-1.62.32Zm.65-.88a2.44,2.44,0,0,0,1.18-.33,3.23,3.23,0,0,0,1-.86c0-.19,0-.52,0-1l0-5.18a3.26,3.26,0,0,0-2-.63,2.48,2.48,0,0,0-2.09,1.07,4.69,4.69,0,0,0-.79,2.84,5.47,5.47,0,0,0,.7,3,2.21,2.21,0,0,0,2,1.12ZM204.13,7.16a.87.87,0,0,1-.67-.31,1.1,1.1,0,0,1,0-1.5,1,1,0,0,1,.68-.33.87.87,0,0,1,.69.32,1.07,1.07,0,0,1,.28.76,1.05,1.05,0,0,1-.3.75.91.91,0,0,1-.69.31Zm-1.79,10.43a1,1,0,0,0,.75-.26,1.2,1.2,0,0,0,.27-.67,12.35,12.35,0,0,0,0-1.27v-4.1a9.18,9.18,0,0,1,.07-1.17l-1.28.07V9.44a6.46,6.46,0,0,0,1.52-.13,1.6,1.6,0,0,0,.71-.36H205v7.27a7.25,7.25,0,0,1-.07,1.23l1.14-.06v.74h-3.68Zm13.13.82a4.53,4.53,0,0,1-2.28-.58,4.42,4.42,0,0,1-1.64-1.63,4.74,4.74,0,0,1-.6-2.36,5.46,5.46,0,0,1,.6-2.54,4.49,4.49,0,0,1,1.63-1.8,4.13,4.13,0,0,1,2.29-.66,4.51,4.51,0,0,1,2.29.6,4.51,4.51,0,0,1,2.24,4,5.29,5.29,0,0,1-.6,2.52,4.76,4.76,0,0,1-1.63,1.82A4.19,4.19,0,0,1,215.47,18.41Zm.14-.72a2,2,0,0,0,1.93-1.08,5.3,5.3,0,0,0,.63-2.68,6.72,6.72,0,0,0-.68-3.11,2.16,2.16,0,0,0-2-1.3,2.22,2.22,0,0,0-2,1.1,5.11,5.11,0,0,0-.67,2.7,7.08,7.08,0,0,0,.31,2.15,3.73,3.73,0,0,0,1,1.61,2.12,2.12,0,0,0,1.56.61Z" fill="#d0d0d0"/></svg>